<svg width="50" height="50" viewBox="0 0 50 50" fill="none" xmlns="http://www.w3.org/2000/svg">
<circle cx="25" cy="25" r="25" fill="#E86A33"/>
<path d="M16.75 30H10.5469V7.5H22.7031C23.7552 7.5 24.7604 7.64062 25.7188 7.92188C26.6875 8.20312 27.5417 8.63021 28.2812 9.20312C29.0208 9.76562 29.6094 10.4792 30.0469 11.3438C30.4948 12.1979 30.7188 13.2031 30.7188 14.3594C30.7188 15.0885 30.6146 15.776 30.4062 16.4219C30.1979 17.0573 29.9062 17.6406 29.5312 18.1719C29.1667 18.7031 28.7344 19.1823 28.2344 19.6094C27.7344 20.0365 27.1875 20.3958 26.5938 20.6875C26 20.9792 25.3698 21.2031 24.7031 21.3594C24.0469 21.5156 23.3802 21.5938 22.7031 21.5938H16.75V30ZM24.4375 14.3594C24.4375 12.9115 24.0677 11.776 23.3281 10.9531C22.599 10.1198 21.4948 9.70312 20.0156 9.70312H16.75V19.4688H20.0156C20.8073 19.4688 21.4792 19.3438 22.0312 19.0938C22.5938 18.8333 23.0521 18.474 23.4062 18.0156C23.7604 17.5573 24.0208 17.0208 24.1875 16.4062C24.3542 15.7812 24.4375 15.099 24.4375 14.3594Z" fill="#535252"/>
<path d="M40.9844 25.0781L38.3125 26.2031C38.1042 25.526 37.8229 24.9062 37.4688 24.3438C37.125 23.7812 36.7083 23.3021 36.2188 22.9062C35.7396 22.5 35.1927 22.1875 34.5781 21.9688C33.9635 21.7396 33.2917 21.625 32.5625 21.625C31.7812 21.625 31.0625 21.7552 30.4062 22.0156C29.7604 22.276 29.1771 22.6302 28.6562 23.0781C28.1458 23.5156 27.6979 24.0312 27.3125 24.625C26.9271 25.2188 26.6042 25.8542 26.3438 26.5312C26.0938 27.1979 25.901 27.8906 25.7656 28.6094C25.6406 29.3281 25.5781 30.0312 25.5781 30.7188C25.5781 31.8125 25.7031 32.901 25.9531 33.9844C26.2135 35.0677 26.6198 36.0417 27.1719 36.9062C27.7344 37.7708 28.4583 38.474 29.3438 39.0156C30.2292 39.5469 31.3021 39.8125 32.5625 39.8125C33.25 39.8125 33.7865 39.6615 34.1719 39.3594C34.5573 39.0469 34.75 38.5052 34.75 37.7344V30.8281H40.9531V42H39.1562L38.0625 40.2344C37.0625 40.9948 35.9583 41.5573 34.75 41.9219C33.5521 42.276 32.3281 42.4531 31.0781 42.4531C29.974 42.4531 28.9115 42.3177 27.8906 42.0469C26.8802 41.776 25.9375 41.3906 25.0625 40.8906C24.1875 40.3906 23.3906 39.7865 22.6719 39.0781C21.9635 38.3698 21.3542 37.5833 20.8438 36.7188C20.3438 35.8542 19.9531 34.9167 19.6719 33.9062C19.401 32.8854 19.2656 31.8229 19.2656 30.7188C19.2656 29.6146 19.401 28.5573 19.6719 27.5469C19.9531 26.526 20.3438 25.5833 20.8438 24.7188C21.3542 23.8438 21.9635 23.0521 22.6719 22.3438C23.3906 21.6354 24.1875 21.0312 25.0625 20.5312C25.9375 20.0312 26.8802 19.6458 27.8906 19.375C28.9115 19.1042 29.974 18.9688 31.0781 18.9688C32.1406 18.9688 33.1771 19.0938 34.1875 19.3438C35.2083 19.5938 36.1562 19.974 37.0312 20.4844C37.9062 20.9844 38.6823 21.6198 39.3594 22.3906C40.0469 23.151 40.5885 24.0469 40.9844 25.0781Z" fill="#535252"/>
</svg>
