<svg width="44" height="52" viewBox="0 0 44 52" fill="none" xmlns="http://www.w3.org/2000/svg">
<rect width="44" height="52" rx="8" fill="#2E2E2E"/>
<path d="M24.6804 12.8182L24.1818 31.1506H19.5028L18.9915 12.8182H24.6804ZM21.8423 39.3324C20.9986 39.3324 20.2741 39.0341 19.669 38.4375C19.0639 37.8324 18.7656 37.108 18.7741 36.2642C18.7656 35.429 19.0639 34.7131 19.669 34.1165C20.2741 33.5199 20.9986 33.2216 21.8423 33.2216C22.652 33.2216 23.3636 33.5199 23.9773 34.1165C24.5909 34.7131 24.902 35.429 24.9105 36.2642C24.902 36.8267 24.7528 37.3423 24.4631 37.8111C24.1818 38.2713 23.8111 38.642 23.3509 38.9233C22.8906 39.196 22.3878 39.3324 21.8423 39.3324Z" fill="white"/>
</svg>
